<?xml version="1.0" encoding="UTF-8"?>
<!DOCTYPE svg PUBLIC "-//W3C//DTD SVG 1.1//EN" "http://www.w3.org/Graphics/SVG/1.1/DTD/svg11.dtd">
<!-- Creator: CorelDRAW X8 -->
<svg xmlns="http://www.w3.org/2000/svg" xml:space="preserve" width="40.0039mm" height="12.8654mm" version="1.1" style="shape-rendering:geometricPrecision; text-rendering:geometricPrecision; image-rendering:optimizeQuality; fill-rule:evenodd; clip-rule:evenodd"
viewBox="0 0 595 191"
 xmlns:xlink="http://www.w3.org/1999/xlink">
 <defs>
  <style type="text/css">
   <![CDATA[
    .fil2 {fill:white}
    .fil0 {fill:#48D943;fill-rule:nonzero}
    .fil1 {fill:white;fill-rule:nonzero}
   ]]>
  </style>
 </defs>
 <g id="Camada_x0020_1">
  <metadata id="CorelCorpID_0Corel-Layer"/>
  <g id="_1236919395440">
   <path class="fil0" d="M63 144c25,0 38,-8 38,-27 0,-10 -7,-18 -16,-22 7,-3 11,-9 11,-19 0,-15 -13,-23 -38,-23l-21 0c-4,0 -6,2 -6,5l0 80c0,3 2,6 6,6l26 0zm16 -28c0,6 -5,9 -15,9l-9 0 0 -19 9 0c11,0 15,3 15,10zm-5 -36c0,6 -5,9 -11,9l-8 0 0 -18 7 0c8,0 12,3 12,9zm62 1c-20,0 -30,9 -30,32 0,23 9,31 30,31 14,0 23,-6 26,-15 1,-4 0,-6 -4,-7l-10 -1c-2,0 -4,1 -5,3 -1,2 -3,3 -7,3 -5,0 -7,-2 -8,-9l10 0c16,0 25,-6 25,-16 0,-10 -6,-21 -27,-21zm0 15c5,0 8,2 8,7 0,3 -3,5 -8,5l-8 0c1,-10 3,-12 8,-12z"/>
   <path class="fil1" d="M216 58c-1,-4 -3,-5 -7,-5l-12 0c-4,0 -7,1 -8,5l-22 80c-1,3 0,6 4,6l13 0c3,0 6,-2 7,-6l2 -10 20 0 2 10c1,3 3,6 7,6l13 0c3,0 5,-3 4,-6l-23 -80zm-13 24l6 31 -13 0 7 -31zm76 16c4,0 6,-3 6,-6l0 -5c0,-3 -2,-6 -6,-6l-10 0 0 -11c0,-4 -2,-6 -6,-6l-10 0c-3,0 -6,2 -6,6l0 11 -2 0c-4,0 -6,3 -6,6l0 5c0,3 2,6 6,6l2 0 0 24c0,15 7,22 27,22 1,0 2,0 4,0 4,0 6,-2 6,-6l0 -6c0,-5 -2,-5 -6,-5l-2 0c-5,0 -7,-3 -7,-9l0 -20 10 0zm16 40c0,3 3,6 6,6l10 0c4,0 6,-3 6,-6l0 -21c0,-11 4,-17 15,-17l3 0c3,0 4,-2 4,-5l0 -8c0,-5 -1,-6 -4,-6l-1 0c-6,0 -10,2 -13,4 -4,4 -6,8 -6,8l0 0 0 -1c0,-2 -2,-4 -4,-7 -2,-3 -6,-4 -11,-4 -2,0 -4,0 -6,0 -3,0 -5,2 -5,6l0 9c0,1 0,2 1,2l2 0c2,0 3,1 3,3l0 37zm87 -26c0,11 -3,15 -8,15 -6,0 -8,-5 -8,-15 0,-10 3,-14 8,-14 6,0 8,4 8,14zm-12 -31c-17,0 -26,10 -26,31 0,22 10,32 24,32 8,0 13,-2 15,-8l1 0 0 0c0,4 4,8 13,8 2,0 4,0 6,0 4,0 6,-2 6,-6l0 -9c0,-2 -1,-2 -2,-2l-1 0c-3,0 -4,-1 -4,-4l0 -36c0,-3 -2,-6 -6,-6l-8 0c-3,0 -4,1 -4,4l0 1 -1 0c1,0 -5,-5 -13,-5zm81 31c0,11 -3,15 -8,15 -5,0 -8,-5 -8,-15 0,-10 3,-14 8,-14 6,0 8,4 8,14zm20 -55c0,-3 -2,-6 -6,-6l-10 0c-4,0 -6,3 -6,6l0 29 0 0c-3,-4 -7,-5 -12,-5 -16,0 -23,10 -23,31 0,22 9,32 23,32 1,0 3,0 4,0 6,-1 9,-4 10,-9l0 0 1 0 0 0c0,2 3,9 14,9 2,0 4,0 6,0 4,0 6,-2 6,-6l0 -9c0,-2 -1,-2 -2,-2l-1 0c-3,0 -4,-1 -4,-4l0 -66zm42 24c-21,0 -30,9 -30,32 0,23 9,31 29,31 15,0 24,-6 27,-15 1,-4 -1,-6 -4,-7l-11 -1c-2,0 -3,1 -4,3 -1,2 -3,3 -7,3 -5,0 -7,-2 -8,-9l10 0c16,0 24,-6 24,-16 0,-10 -5,-21 -26,-21zm0 15c5,0 8,2 8,7 0,3 -3,5 -8,5l-8 0c0,-10 3,-12 8,-12zm38 42c0,3 2,6 6,6l10 0c3,0 6,-3 6,-6l0 -21c0,-11 4,-17 14,-17l3 0c3,0 5,-2 5,-5l0 -8c0,-5 -1,-6 -5,-6l-1 0c-5,0 -10,2 -13,4 -4,4 -5,8 -5,8l-1 0 0 -1c0,-2 -1,-4 -4,-7 -2,-3 -6,-4 -11,-4 -1,0 -3,0 -5,0 -4,0 -6,2 -6,6l0 9c0,1 0,2 2,2l1 0c2,0 4,1 4,3l0 37z"/>
  </g>
  <polygon class="fil2" points="0,35 22,35 22,157 0,157 "/>
  <polygon class="fil2" points="9,0 13,0 13,191 9,191 "/>
 </g>
</svg>
