<?xml version="1.0" encoding="UTF-8"?>
<!DOCTYPE svg PUBLIC "-//W3C//DTD SVG 1.1//EN" "http://www.w3.org/Graphics/SVG/1.1/DTD/svg11.dtd">
<!-- Creator: CorelDRAW X8 -->
<svg xmlns="http://www.w3.org/2000/svg" xml:space="preserve" width="47.1659mm" height="12.8416mm" version="1.1" style="shape-rendering:geometricPrecision; text-rendering:geometricPrecision; image-rendering:optimizeQuality; fill-rule:evenodd; clip-rule:evenodd"
viewBox="0 0 1445 393"
 xmlns:xlink="http://www.w3.org/1999/xlink">
 <defs>
  <style type="text/css">
   <![CDATA[
    .fil0 {fill:#CCCCCC}
    .fil1 {fill:#8DD13A;fill-rule:nonzero}
    .fil2 {fill:#CCCCCC;fill-rule:nonzero}
   ]]>
  </style>
 </defs>
 <g id="Camada_x0020_1">
  <metadata id="CorelCorpID_0Corel-Layer"/>
  <polygon class="fil0" points="0,72 45,72 45,323 0,323 "/>
  <polygon class="fil0" points="19,0 27,0 27,393 19,393 "/>
  <g id="_2059347760992">
   <path class="fil1" d="M114 134c0,20 0,41 0,61 0,20 0,40 0,60 0,7 3,11 10,11l0 0c7,0 11,-4 11,-11 0,-6 0,-12 0,-18 0,-6 0,-12 0,-18 0,0 0,0 0,0 0,0 0,0 0,0 0,-1 0,-1 0,-1 0,0 0,-1 0,-1 0,-13 4,-25 14,-34 9,-10 21,-14 34,-14l0 0 28 0c12,0 23,4 33,13 9,9 14,19 15,32 0,0 0,1 0,1 0,0 0,0 0,0l0 2c0,5 0,9 0,14 0,5 0,9 0,14 0,13 -5,24 -14,34 -10,9 -21,14 -34,14l-14 0c-9,0 -14,-4 -14,-14 0,-9 5,-13 14,-13l14 0c5,0 10,-3 14,-7 4,-4 6,-9 6,-14 0,-5 0,-9 0,-14 0,-5 0,-9 0,-14 0,-6 -2,-10 -6,-15 -4,-4 -9,-6 -14,-6l-28 0c-6,0 -11,2 -15,6 -4,5 -6,9 -6,15 0,6 0,13 0,19 0,6 0,13 0,19 0,11 -3,20 -11,27 -7,7 -16,11 -27,11 -10,0 -19,-3 -26,-10 -7,-8 -11,-16 -12,-26l0 0 0 -2c0,-20 0,-40 0,-60 0,-20 0,-41 0,-61l0 -2 0 0c1,-8 6,-12 14,-12 8,0 13,4 14,12l0 0 0 2zm202 62c-6,0 -11,2 -15,6 -4,5 -6,9 -6,15 0,5 0,9 0,14 0,5 0,9 0,14 0,5 2,10 6,14 4,4 9,7 15,7l62 0c10,0 14,4 14,13 0,10 -4,14 -14,14l-62 0c-13,0 -25,-5 -34,-14 -10,-10 -14,-21 -14,-34l0 -28c0,-13 4,-25 14,-34 9,-10 21,-14 34,-14l59 0 2 0 0 0c10,0 18,4 25,12 7,7 11,16 11,26 0,10 -4,19 -11,27 -8,7 -17,11 -27,11l-45 0c-9,0 -14,-5 -14,-14 0,-9 5,-14 14,-14l45 0c7,0 10,-3 10,-10l0 0c0,-7 -3,-11 -10,-11 -11,0 -19,0 -22,0 -3,0 -6,0 -8,0 -1,0 -4,0 -7,0 -3,0 -11,0 -22,0zm257 49c0,0 0,0 0,0 0,0 0,0 0,0l0 -111c0,-9 4,-14 13,-14 10,0 14,5 14,14l0 35 83 0c9,0 14,4 14,13 0,10 -5,14 -14,14l-83 0 0 49c0,5 2,10 6,14 4,4 9,7 15,7l50 0 0 0 12 0c9,0 14,4 14,13 0,10 -5,14 -14,14l-62 0c0,0 0,0 0,0 0,0 0,0 0,0 -13,0 -25,-5 -34,-14 -10,-10 -14,-21 -14,-34zm179 -76c0,0 0,0 0,0 0,0 0,0 0,0l62 0c9,0 14,4 14,13 0,10 -5,14 -14,14 -9,0 -16,0 -20,0 -4,0 -8,0 -11,0 -3,0 -7,0 -11,0 -4,0 -11,0 -20,0l0 0c-6,0 -11,2 -15,6 -4,5 -6,9 -6,15l0 62c0,10 -5,14 -14,14 -9,0 -14,-4 -14,-14l0 -62 0 0c0,-13 5,-25 14,-34 10,-10 21,-14 35,-14zm179 97c5,0 10,-3 14,-7 4,-4 6,-9 6,-14 0,-5 0,-9 0,-14 0,-5 0,-9 0,-14 0,-6 -2,-10 -6,-15 -4,-4 -9,-6 -14,-6l-63 0c-9,0 -13,-4 -13,-14 0,-9 4,-13 13,-13l63 0c13,0 24,4 34,14 9,9 14,21 14,34l0 28c0,13 -5,24 -14,34 -10,9 -21,14 -34,14l-59 0 -2 0 0 0c-10,0 -18,-4 -26,-12 -7,-7 -10,-16 -10,-26 0,-10 4,-19 11,-27 7,-7 16,-11 27,-11l45 0c9,0 14,5 14,14 0,9 -5,14 -14,14l-45 0c-7,0 -10,3 -10,10l0 0c0,7 3,11 10,11 11,0 18,0 22,0 3,0 6,0 7,0 2,0 5,0 8,0 3,0 10,0 22,0zm201 -132l0 -2 0 0c1,-8 5,-12 13,-12 9,0 13,4 14,12l0 0 0 2c0,20 0,41 0,61 0,20 0,40 0,60l0 2 0 0c0,10 -4,18 -12,26 -7,7 -16,10 -26,10 -10,0 -19,-4 -27,-11 -7,-7 -11,-16 -11,-27 0,-6 0,-13 0,-19 0,-6 0,-13 0,-19 0,-6 -2,-10 -6,-15 -4,-4 -9,-6 -15,-6l-27 0c-6,0 -11,2 -15,6 -4,5 -6,9 -6,15 0,5 0,9 0,14 0,5 0,9 0,14 0,5 2,10 6,14 4,4 9,7 15,7l14 0c9,0 13,4 13,13 0,10 -4,14 -13,14l-14 0c-14,0 -25,-5 -34,-14 -10,-10 -15,-21 -15,-34 0,-5 0,-9 0,-14 0,-5 0,-9 0,-14l0 -2c0,0 0,-1 0,-1 1,-13 6,-23 16,-32 9,-9 20,-13 33,-13l27 0 0 0c14,0 25,4 35,14 9,9 14,21 14,34 0,0 0,1 0,1 0,0 0,0 0,1 0,0 0,0 0,0 0,0 0,0 0,0 0,6 0,12 0,18 0,6 0,12 0,18 0,7 3,11 10,11l0 0c7,0 11,-4 11,-11 0,-20 0,-40 0,-60 0,-20 0,-41 0,-61zm84 62c-6,0 -10,2 -15,6 -4,5 -6,9 -6,15 0,5 0,9 0,14 0,5 0,9 0,14 0,5 2,10 6,14 5,4 9,7 15,7l62 0c10,0 14,4 14,13 0,10 -4,14 -14,14l-62 0c-13,0 -25,-5 -34,-14 -9,-10 -14,-21 -14,-34l0 -28c0,-13 5,-25 14,-34 9,-10 21,-14 34,-14l59 0 2 0 0 0c10,0 18,4 25,12 7,7 11,16 11,26 0,10 -4,19 -11,27 -8,7 -17,11 -27,11l-45 0c-9,0 -14,-5 -14,-14 0,-9 5,-14 14,-14l45 0c7,0 10,-3 10,-10l0 0c0,-7 -3,-11 -10,-11 -11,0 -19,0 -22,0 -3,0 -6,0 -7,0 -2,0 -5,0 -8,0 -3,0 -11,0 -22,0zm153 -27c0,0 0,0 0,0 0,0 0,0 0,0l62 0c9,0 14,4 14,13 0,10 -5,14 -14,14 -9,0 -16,0 -20,0 -4,0 -8,0 -11,0 -3,0 -7,0 -11,0 -4,0 -11,0 -20,0l0 0c-6,0 -11,2 -15,6 -4,5 -6,9 -6,15l0 62c0,10 -5,14 -14,14 -9,0 -14,-4 -14,-14l0 -62 0 0c0,-13 5,-25 14,-34 10,-10 21,-14 35,-14z"/>
   <path class="fil2" d="M517 266c6,0 10,-3 15,-7 4,-4 6,-9 6,-14 0,-5 0,-9 0,-14 0,-5 0,-9 0,-14 0,-6 -2,-10 -6,-15 -5,-4 -9,-6 -15,-6l-62 0c-10,0 -14,-4 -14,-14 0,-9 4,-13 14,-13l62 0c13,0 25,4 34,14 10,9 14,21 14,34l0 28c0,13 -4,24 -14,34 -9,9 -21,14 -34,14l-59 0 -2 0 0 0c-10,0 -18,-4 -25,-12 -7,-7 -11,-16 -11,-26 0,-10 4,-19 11,-27 8,-7 17,-11 27,-11l45 0c9,0 14,5 14,14 0,9 -5,14 -14,14l-45 0c-7,0 -10,3 -10,10l0 0c0,7 3,11 10,11 11,0 19,0 22,0 3,0 6,0 7,0 2,0 5,0 8,0 3,0 11,0 22,0z"/>
  </g>
 </g>
</svg>
